<svg version="1.1" id="Layer_1" xmlns="http://www.w3.org/2000/svg" xmlns:xlink="http://www.w3.org/1999/xlink" x="0px" y="0px"
	 width="100%" viewBox="0 0 657 815" enable-background="new 0 0 657 815" xml:space="preserve">
<path fill="#000000" opacity="1.000000" stroke="none" 
	d="
M658.000000,320.000000 
	C658.000000,485.666656 658.000000,650.833313 658.000000,816.000000 
	C439.000000,816.000000 220.000000,816.000000 1.000000,816.000000 
	C1.000000,544.333313 1.000000,272.666656 1.000000,1.000000 
	C220.000000,1.000000 439.000000,1.000000 658.000000,1.000000 
	C658.000000,107.166664 658.000000,213.333328 658.000000,320.000000 
M320.254150,13.117778 
	C319.182312,15.010942 318.110474,16.904104 316.524017,19.298378 
	C310.981415,30.826912 305.435608,42.353916 299.896698,53.884220 
	C262.559875,131.608307 225.214325,209.328186 187.893036,287.059723 
	C169.483856,325.401733 151.120392,363.765686 132.223267,402.533417 
	C132.277725,405.289825 132.332184,408.046265 132.407196,411.507843 
	C138.872513,425.010468 145.332169,438.515808 151.804214,452.015228 
	C177.193542,504.972473 202.571671,557.935120 227.982986,610.881775 
	C251.450943,659.779236 274.927521,708.672546 298.466217,757.535950 
	C303.864471,768.742065 309.532745,779.818176 315.184265,791.432678 
	C315.184265,791.432678 315.367981,791.887390 315.346588,792.378601 
	C315.452301,792.707825 315.655701,792.957458 315.997986,793.844543 
	C318.053497,796.419800 320.109009,798.994995 322.164520,801.570251 
	C324.111542,799.029419 326.554657,796.731506 327.934326,793.912964 
	C388.926849,669.314453 449.830536,544.672485 510.708252,420.017883 
	C512.296021,416.766815 513.478149,413.317657 515.041931,409.280609 
	C514.356445,405.764771 514.329590,401.944611 512.870117,398.786469 
	C506.942719,385.960663 500.575043,373.338379 494.370544,360.640656 
	C449.623993,269.065094 404.873169,177.491608 360.134460,85.912201 
	C348.969421,63.057571 337.886658,40.162540 326.630676,17.352903 
	C325.561951,15.187211 325.128143,11.370669 320.254150,13.117778 
z"/>
<path fill="#FECF83" opacity="1.000000" stroke="none" 
	d="
M132.736237,402.119690 
	C151.120392,363.765686 169.483856,325.401733 187.893036,287.059723 
	C225.214325,209.328186 262.559875,131.608307 299.896698,53.884220 
	C305.435608,42.353916 310.981415,30.826912 316.753967,19.460714 
	C314.920227,26.811428 312.931335,34.022270 310.780334,41.184433 
	C299.299408,79.412659 287.744171,117.618584 276.279266,155.851608 
	C262.760956,200.932404 249.314209,246.034622 235.826141,291.124481 
	C224.578354,328.725250 213.315750,366.321564 201.585510,403.916565 
	C180.205765,403.920197 159.299927,403.973724 138.395050,403.855072 
	C136.505554,403.844391 134.622360,402.724487 132.736237,402.119690 
z"/>
<path fill="#6E502F" opacity="1.000000" stroke="none" 
	d="
M315.076721,790.954102 
	C309.532745,779.818176 303.864471,768.742065 298.466217,757.535950 
	C274.927521,708.672546 251.450943,659.779236 227.982986,610.881775 
	C202.571671,557.935120 177.193542,504.972473 151.804214,452.015228 
	C145.332169,438.515808 138.872513,425.010468 132.838974,411.160889 
	C156.171356,410.884796 179.071976,410.955688 202.043732,411.398743 
	C207.036530,428.181793 211.954102,444.593933 216.880585,461.003357 
	C230.130508,505.137177 243.398453,549.265564 256.632812,593.404053 
	C273.496429,649.646484 290.365387,705.887390 307.152588,762.152649 
	C309.998749,771.692078 312.445465,781.350586 315.076721,790.954102 
z"/>
<path fill="#A17D28" opacity="1.000000" stroke="none" 
	d="
M315.130493,791.193359 
	C312.445465,781.350586 309.998749,771.692078 307.152588,762.152649 
	C290.365387,705.887390 273.496429,649.646484 256.632812,593.404053 
	C243.398453,549.265564 230.130508,505.137177 216.880585,461.003357 
	C211.954102,444.593933 207.036530,428.181793 202.100464,411.343933 
	C202.086014,410.916931 202.199081,410.807465 202.579224,410.875793 
	C206.007324,410.664886 207.553314,412.202393 208.175201,415.069153 
	C208.597519,417.015961 209.220245,418.921539 209.796768,420.832428 
	C221.719406,460.350311 233.695694,499.852051 245.563766,539.386353 
	C260.013489,587.520447 274.364929,635.684021 288.774475,683.830261 
	C299.749237,720.499756 310.747040,757.162415 321.742889,793.825562 
	C322.088867,794.979126 322.526581,796.105103 323.400665,798.625549 
	C327.465271,790.001465 330.839355,782.616577 334.401428,775.323486 
	C350.191895,742.993835 366.018341,710.681763 381.866455,678.380310 
	C396.166504,649.234131 410.567291,620.137329 424.821503,590.968811 
	C439.443115,561.048706 453.881470,531.039001 468.510620,501.122559 
	C481.464233,474.632568 494.554474,448.209229 507.624817,421.776459 
	C509.600708,417.780487 511.796509,413.893219 514.130310,409.949280 
	C514.370056,409.942871 514.849426,409.960876 514.849426,409.960876 
	C513.478149,413.317657 512.296021,416.766815 510.708252,420.017883 
	C449.830536,544.672485 388.926849,669.314453 327.934326,793.912964 
	C326.554657,796.731506 324.111542,799.029419 322.164520,801.570251 
	C320.109009,798.994995 318.053497,796.419800 315.963074,793.245605 
	C315.836334,792.323486 315.649597,792.070435 315.367981,791.887390 
	C315.367981,791.887390 315.184265,791.432678 315.130493,791.193359 
z"/>
<path fill="#FDE140" opacity="1.000000" stroke="none" 
	d="
M202.059692,403.919861 
	C213.315750,366.321564 224.578354,328.725250 235.826141,291.124481 
	C249.314209,246.034622 262.760956,200.932404 276.279266,155.851608 
	C287.744171,117.618584 299.299408,79.412659 310.780334,41.184433 
	C312.931335,34.022270 314.920227,26.811428 317.011292,19.210159 
	C318.110474,16.904104 319.182312,15.010942 320.898041,13.161787 
	C322.021820,14.127626 322.501709,15.049455 322.890991,16.245476 
	C322.532867,17.026907 322.265350,17.534147 321.840332,18.151985 
	C321.485291,18.453196 321.401703,18.684864 321.355835,19.316563 
	C321.193909,20.157152 321.108246,20.638765 320.873108,21.209976 
	C320.532684,21.468824 320.466675,21.677546 320.442017,22.298096 
	C320.264038,23.170198 320.169617,23.669939 319.943268,24.228073 
	C319.632477,24.567028 319.686554,24.808308 319.884644,25.375278 
	C318.537292,29.878437 317.265869,34.012726 316.022339,38.155388 
	C301.768158,85.642166 287.502258,133.125458 273.271027,180.619110 
	C254.837936,242.135605 236.420410,303.656769 218.027344,365.185211 
	C214.266098,377.767303 210.642532,390.390533 206.890869,403.162231 
	C206.826233,403.329620 206.759232,403.682190 206.445755,403.813354 
	C204.848114,405.528229 203.563950,407.111908 202.255371,408.298767 
	C202.173859,406.574554 202.116791,405.247223 202.059692,403.919861 
z"/>
<path fill="#CCA638" opacity="1.000000" stroke="none" 
	d="
M322.981598,15.971287 
	C322.501709,15.049455 322.021820,14.127626 321.224915,13.078159 
	C325.128143,11.370669 325.561951,15.187211 326.630676,17.352903 
	C337.886658,40.162540 348.969421,63.057571 360.134460,85.912201 
	C404.873169,177.491608 449.623993,269.065094 494.370544,360.640656 
	C500.575043,373.338379 506.942719,385.960663 512.870117,398.786469 
	C514.329590,401.944611 514.356445,405.764771 514.945679,409.620728 
	C514.849426,409.960876 514.370056,409.942871 513.936035,409.956665 
	C513.501953,409.970428 513.111267,409.989014 513.084351,409.586060 
	C512.702698,407.126892 512.348022,405.070618 511.987793,402.749756 
	C511.973450,402.308899 511.964630,402.132690 511.810791,401.642883 
	C498.674683,374.687042 485.690857,348.041260 472.690521,321.403503 
	C458.667450,292.670135 444.631683,263.942993 430.596344,235.215591 
	C416.195312,205.739685 401.823303,176.249466 387.372864,146.797775 
	C374.827362,121.228554 362.171295,95.713585 349.600403,70.156776 
	C342.544403,55.811855 335.569824,41.426891 328.540955,27.068600 
	C326.721924,23.352810 324.836517,19.669512 322.981598,15.971287 
z"/>
<path fill="#A17D28" opacity="1.000000" stroke="none" 
	d="
M201.585526,403.916565 
	C202.116791,405.247223 202.173859,406.574554 202.197311,408.649902 
	C202.175491,409.867767 202.187286,410.337616 202.199066,410.807465 
	C202.199081,410.807465 202.086014,410.916931 202.029297,410.971771 
	C179.071976,410.955688 156.171356,410.884796 132.828705,410.808289 
	C132.332184,408.046265 132.277725,405.289825 132.479752,402.326538 
	C134.622360,402.724487 136.505554,403.844391 138.395050,403.855072 
	C159.299927,403.973724 180.205765,403.920197 201.585526,403.916565 
z"/>
<path fill="#6E502F" opacity="1.000000" stroke="none" 
	d="
M315.357300,792.132996 
	C315.649597,792.070435 315.836334,792.323486 315.942505,792.887085 
	C315.655701,792.957458 315.452301,792.707825 315.357300,792.132996 
z"/>
<path fill="#C79D2B" opacity="1.000000" stroke="none" 
	d="
M202.579208,410.875793 
	C202.187286,410.337616 202.175491,409.867767 202.221741,409.046753 
	C203.563950,407.111908 204.848114,405.528229 206.516510,404.259735 
	C206.437958,409.637299 209.502899,410.044495 213.514282,410.041870 
	C313.379913,409.976410 413.245605,409.989685 513.111267,409.989014 
	C513.111267,409.989014 513.501953,409.970428 513.696289,409.963043 
	C511.796509,413.893219 509.600708,417.780487 507.624817,421.776459 
	C494.554474,448.209229 481.464233,474.632568 468.510620,501.122559 
	C453.881470,531.039001 439.443115,561.048706 424.821503,590.968811 
	C410.567291,620.137329 396.166504,649.234131 381.866455,678.380310 
	C366.018341,710.681763 350.191895,742.993835 334.401428,775.323486 
	C330.839355,782.616577 327.465271,790.001465 323.400665,798.625549 
	C322.526581,796.105103 322.088867,794.979126 321.742889,793.825562 
	C310.747040,757.162415 299.749237,720.499756 288.774475,683.830261 
	C274.364929,635.684021 260.013489,587.520447 245.563766,539.386353 
	C233.695694,499.852051 221.719406,460.350311 209.796768,420.832428 
	C209.220245,418.921539 208.597519,417.015961 208.175201,415.069153 
	C207.553314,412.202393 206.007324,410.664886 202.579208,410.875793 
z"/>
<path fill="#B7932A" opacity="1.000000" stroke="none" 
	d="
M322.890991,16.245480 
	C324.836517,19.669512 326.721924,23.352810 328.540955,27.068600 
	C335.569824,41.426891 342.544403,55.811855 349.600403,70.156776 
	C362.171295,95.713585 374.827362,121.228554 387.372864,146.797775 
	C401.823303,176.249466 416.195312,205.739685 430.596344,235.215591 
	C444.631683,263.942993 458.667450,292.670135 472.690521,321.403503 
	C485.690857,348.041260 498.674683,374.687042 511.347168,401.657654 
	C412.600342,401.991882 314.172150,401.991119 215.743958,402.045288 
	C213.494431,402.046539 211.245255,402.668701 208.656036,403.001587 
	C207.862625,402.999573 207.409058,402.997192 206.955505,402.994812 
	C210.642532,390.390533 214.266098,377.767303 218.027344,365.185211 
	C236.420410,303.656769 254.837936,242.135605 273.271027,180.619110 
	C287.502258,133.125458 301.768158,85.642166 316.022339,38.155388 
	C317.265869,34.012726 318.537292,29.878437 319.919769,25.166313 
	C320.043793,24.592369 320.075226,24.169682 320.075226,24.169682 
	C320.169617,23.669939 320.264038,23.170198 320.544891,22.182255 
	C320.860870,21.519354 320.957977,21.328131 321.022583,21.120380 
	C321.108246,20.638765 321.193909,20.157152 321.478516,19.186947 
	C321.829041,18.501232 321.935852,18.282242 321.997864,18.041386 
	C322.265350,17.534147 322.532867,17.026907 322.890991,16.245480 
z"/>
<path fill="#B48F28" opacity="1.000000" stroke="none" 
	d="
M206.890869,403.162231 
	C207.409058,402.997192 207.862625,402.999573 209.125183,403.000000 
	C310.620575,403.003510 411.306976,403.008942 511.993378,403.014374 
	C512.348022,405.070618 512.702698,407.126892 513.084351,409.586060 
	C413.245605,409.989685 313.379913,409.976410 213.514282,410.041870 
	C209.502899,410.044495 206.437958,409.637299 206.829987,404.128571 
	C206.759232,403.682190 206.826233,403.329620 206.890869,403.162231 
z"/>
<path fill="#CCA638" opacity="1.000000" stroke="none" 
	d="
M321.840332,18.151983 
	C321.935852,18.282242 321.829041,18.501232 321.554749,18.827974 
	C321.401703,18.684864 321.485291,18.453196 321.840332,18.151983 
z"/>
<path fill="#CCA638" opacity="1.000000" stroke="none" 
	d="
M320.873108,21.209976 
	C320.957977,21.328131 320.860870,21.519354 320.628479,21.809893 
	C320.466675,21.677546 320.532684,21.468824 320.873108,21.209976 
z"/>
<path fill="#CCA638" opacity="1.000000" stroke="none" 
	d="
M319.943268,24.228073 
	C320.075226,24.169682 320.043793,24.592369 320.008667,24.801334 
	C319.686554,24.808308 319.632477,24.567028 319.943268,24.228073 
z"/>
<path fill="#C79D2B" opacity="1.000000" stroke="none" 
	d="
M511.987793,402.749756 
	C411.306976,403.008942 310.620575,403.003510 209.465042,402.999634 
	C211.245255,402.668701 213.494431,402.046539 215.743958,402.045288 
	C314.172150,401.991119 412.600342,401.991882 511.492188,401.971222 
	C511.964630,402.132690 511.973450,402.308899 511.987793,402.749756 
z"/>
</svg>